<svg xmlns="http://www.w3.org/2000/svg" xmlns:xlink="http://www.w3.org/1999/xlink" version="1.1" id="Layer_1" x="0px" y="0px" viewBox="0 0 304 128.5" style="enable-background:new 0 0 304 128.5;" xml:space="preserve">
<style type="text/css">
	.st0{fill:#0066B3;}
</style>
<g id="Camada_3">
</g>
<g id="Camada_2">
	<g>
		<g>
			<path class="st0" d="M9.1,114c0,0.3-0.1,0.6-0.1,1s0.1,0.7,0.2,1.1c0.2,0.3,0.5,0.6,1,0.9c0.5,0.2,1.2,0.4,2.2,0.4     c0.9,0,1.6-0.1,2.1-0.3c0.6-0.2,1-0.5,1.4-0.8c0.3-0.3,0.6-0.6,0.7-1c0.2-0.3,0.3-0.6,0.3-0.8c0.1-0.5,0.1-0.8,0-1.1     c-0.1-0.3-0.3-0.5-0.6-0.7c-0.3-0.2-0.7-0.4-1.1-0.5s-0.9-0.3-1.5-0.4c-0.6-0.2-1.1-0.3-1.6-0.4c-0.4-0.1-0.8-0.2-1.2-0.3     c-0.3-0.1-0.6-0.2-0.9-0.3c-0.2-0.1-0.4-0.2-0.6-0.4c-0.6-0.5-0.9-1-1-1.6s-0.1-1.1,0-1.7c0.2-0.8,0.5-1.6,1-2.2s1.1-1.1,1.8-1.5     c0.7-0.4,1.4-0.7,2.2-0.9c0.8-0.2,1.6-0.3,2.4-0.3c0.3,0,0.6,0,1,0s0.8,0.1,1.2,0.2c0.4,0.1,0.8,0.3,1.2,0.5     c0.4,0.2,0.7,0.5,1,0.9c0.2,0.3,0.3,0.5,0.4,0.8s0.1,0.5,0.1,0.8c0,0.2,0,0.5,0,0.7s-0.1,0.4-0.1,0.6h-2.4c0.1-0.5,0-0.9-0.1-1.3     c-0.1-0.3-0.4-0.6-0.6-0.8c-0.3-0.2-0.6-0.3-1-0.4s-0.8-0.1-1.2-0.1c-1.2,0-2.1,0.2-2.9,0.7s-1.2,1.1-1.4,2     c-0.1,0.4-0.1,0.7,0,0.9c0.1,0.3,0.2,0.5,0.4,0.7c0.2,0.2,0.5,0.3,0.8,0.5c0.4,0.1,0.8,0.3,1.2,0.4c0.9,0.3,1.7,0.5,2.2,0.6     s1,0.3,1.4,0.4c0.3,0.1,0.6,0.2,0.8,0.3s0.4,0.2,0.6,0.4c0.3,0.3,0.6,0.5,0.7,0.9c0.2,0.3,0.3,0.6,0.3,0.9s0,0.6,0,0.9     s-0.1,0.5-0.1,0.7c-0.2,0.7-0.4,1.4-0.9,2c-0.4,0.6-0.9,1.2-1.6,1.6c-0.7,0.5-1.4,0.8-2.3,1.1s-1.9,0.4-2.9,0.4     c-0.3,0-0.7,0-1.2-0.1c-0.4,0-0.9-0.1-1.3-0.3c-0.5-0.1-0.9-0.3-1.3-0.6c-0.4-0.3-0.7-0.6-1-1c-0.2-0.3-0.3-0.6-0.3-0.9     c-0.1-0.3-0.1-0.6-0.1-0.9s0-0.6,0.1-0.8c0-0.3,0.1-0.5,0.1-0.7h2.5V114z"/>
			<path class="st0" d="M24.2,113.5c-0.2,0.6-0.2,1.2-0.2,1.7s0.1,0.9,0.3,1.3c0.2,0.4,0.5,0.7,0.9,0.9s0.9,0.3,1.5,0.3     c0.7,0,1.4-0.2,1.9-0.6c0.6-0.4,1-1,1.3-1.8h2.2c-0.1,0.3-0.2,0.7-0.4,1.1s-0.6,0.9-1.1,1.3c-0.2,0.1-0.4,0.3-0.6,0.5     c-0.3,0.2-0.6,0.4-0.9,0.5c-0.4,0.2-0.8,0.3-1.2,0.4c-0.5,0.1-1,0.2-1.6,0.2c-1.8,0-3.1-0.5-3.7-1.6s-0.8-2.5-0.4-4.3     c0.2-1.1,0.6-2.2,1.1-3.1s1.3-1.7,2.3-2.3c0.3-0.2,0.6-0.4,0.9-0.5s0.6-0.2,0.9-0.3s0.6-0.1,0.8-0.1s0.5,0,0.6,0     c0.9,0,1.6,0.1,2.1,0.3c0.5,0.2,1,0.5,1.3,0.9s0.5,0.8,0.6,1.3s0.1,0.9,0.1,1.4s-0.1,0.9-0.2,1.4c-0.1,0.4-0.2,0.8-0.2,1.1     C32.5,113.5,24.2,113.5,24.2,113.5z M30.6,112c0.1-0.3,0.1-0.6,0.1-1s0-0.8-0.1-1.1c-0.1-0.4-0.3-0.7-0.7-0.9     c-0.3-0.3-0.8-0.4-1.5-0.4c-0.4,0-0.7,0.1-1.1,0.2c-0.4,0.1-0.8,0.3-1.1,0.6c-0.4,0.3-0.7,0.6-1,1s-0.5,1-0.7,1.6     C24.5,112,30.6,112,30.6,112z"/>
			<path class="st0" d="M36.6,109.7c0.1-0.4,0.2-0.8,0.2-1.2c0.1-0.4,0.1-0.8,0.2-1.2h2.2l-0.4,2.2c0.2-0.4,0.4-0.7,0.7-1     s0.5-0.5,0.8-0.7s0.6-0.3,0.9-0.4c0.3-0.1,0.6-0.2,0.8-0.2c0.3,0,0.6-0.1,0.9-0.1c0.2,0,0.5,0,0.6,0l-0.5,2.1     c-0.1,0-0.2-0.1-0.4-0.1c-0.1,0-0.2,0-0.3,0s-0.2,0-0.3,0c-0.6,0-1.2,0.1-1.6,0.3c-0.4,0.2-0.8,0.4-1.1,0.7     c-0.3,0.3-0.5,0.7-0.7,1.1s-0.3,0.9-0.4,1.4l-1.3,6.1h-2.2L36.6,109.7z"/>
			<path class="st0" d="M44.2,107.3h2.4l1.7,9.2l5.5-9.2h2.4l-7.5,11.5h-2.2L44.2,107.3z"/>
			<path class="st0" d="M58.8,107.3H61l-2.5,11.6h-2.2L58.8,107.3z M59.6,102.3h2.6l-0.5,2.4h-2.6L59.6,102.3z"/>
			<path class="st0" d="M72.3,115c-0.1,0.5-0.4,1-0.7,1.5c-0.3,0.5-0.7,0.9-1.1,1.3c-0.5,0.4-1,0.7-1.5,0.9     c-0.6,0.2-1.2,0.4-1.9,0.4l-1,1.1c0.1,0,0.3-0.1,0.4-0.1s0.3,0,0.5,0c0.3,0,0.6,0.1,0.8,0.2c0.2,0.1,0.4,0.2,0.5,0.4     c0.1,0.2,0.2,0.3,0.2,0.5s0,0.4,0,0.5c0,0-0.1,0.2-0.1,0.4c-0.1,0.2-0.2,0.5-0.5,0.7c-0.2,0.2-0.6,0.5-1,0.7s-1,0.3-1.7,0.3     c-0.5,0-1,0-1.3-0.1s-0.6-0.2-0.8-0.3l0.6-0.9c0.1,0.1,0.3,0.1,0.5,0.2s0.5,0.1,1,0.1c0.4,0,0.7-0.1,1-0.2     c0.2-0.2,0.4-0.4,0.5-0.7c0-0.2,0-0.4,0-0.5c-0.1-0.1-0.1-0.2-0.3-0.3c-0.1-0.1-0.2-0.1-0.4-0.1s-0.2,0-0.3,0c-0.2,0-0.3,0-0.4,0     s-0.3,0.1-0.4,0.1l-0.3-0.4l1.5-1.6c-0.9-0.1-1.6-0.3-2.1-0.7c-0.5-0.4-0.9-0.8-1.1-1.3s-0.4-1.1-0.4-1.8c0-0.7,0.1-1.3,0.2-2     c0.3-1.3,0.7-2.3,1.2-3.2c0.5-0.8,1.1-1.5,1.7-1.9c0.6-0.5,1.3-0.8,1.9-1s1.2-0.3,1.8-0.3c0.2,0,0.4,0,0.7,0     c0.3,0,0.6,0.1,0.9,0.2s0.6,0.2,0.9,0.4c0.3,0.2,0.5,0.4,0.7,0.8c0.3,0.5,0.5,1,0.5,1.4s0,0.8-0.1,1.2h-2.2c0-0.1,0-0.3,0-0.6     c0-0.3,0-0.5-0.1-0.8s-0.3-0.5-0.5-0.7c-0.3-0.2-0.6-0.3-1.2-0.3c-0.8,0-1.4,0.2-1.9,0.6s-0.9,0.8-1.2,1.3     c-0.3,0.5-0.5,1-0.6,1.5s-0.2,0.8-0.3,1c-0.1,0.6-0.2,1.2-0.3,1.7c0,0.5,0,1,0.1,1.5c0.1,0.4,0.3,0.8,0.7,1s0.8,0.4,1.3,0.4     s0.9-0.1,1.2-0.2s0.6-0.4,0.9-0.6c0.2-0.2,0.4-0.5,0.6-0.8s0.3-0.6,0.3-0.9C69.7,115,72.3,115,72.3,115z"/>
			<path class="st0" d="M74.5,113.2c0.2-0.7,0.4-1.4,0.7-2.2s0.8-1.4,1.4-2s1.3-1.1,2.1-1.5c0.8-0.4,1.8-0.6,2.9-0.6     c1.2,0,2.1,0.2,2.7,0.6c0.7,0.4,1.1,0.9,1.4,1.5s0.4,1.3,0.4,2s0,1.4-0.2,2c-0.2,0.8-0.5,1.6-0.9,2.4s-0.9,1.4-1.5,2     s-1.3,1-2.1,1.3c-0.8,0.3-1.7,0.5-2.7,0.5s-1.7-0.2-2.4-0.5c-0.6-0.3-1.1-0.7-1.5-1.3c-0.4-0.5-0.6-1.2-0.7-1.9     C74.3,114.9,74.3,114.1,74.5,113.2z M76.8,113.1c-0.1,0.6-0.2,1.2-0.2,1.7s0.1,1,0.3,1.4c0.2,0.4,0.5,0.8,0.9,1     c0.4,0.3,0.9,0.4,1.5,0.4c0.4,0,0.8-0.1,1.3-0.2c0.5-0.2,0.9-0.4,1.3-0.8s0.8-0.8,1.1-1.4c0.3-0.6,0.6-1.3,0.8-2.2     c0.3-1.4,0.2-2.5-0.2-3.3c-0.5-0.7-1.2-1.1-2.2-1.1c-0.4,0-0.8,0.1-1.2,0.2c-0.4,0.1-0.9,0.4-1.3,0.7s-0.8,0.8-1.2,1.4     S77,112.2,76.8,113.1z"/>
			<path class="st0" d="M97.3,114c0,0.3-0.1,0.6-0.1,1s0.1,0.7,0.2,1.1c0.2,0.3,0.5,0.6,1,0.9c0.5,0.2,1.2,0.4,2.2,0.4     c0.9,0,1.6-0.1,2.1-0.3c0.6-0.2,1-0.5,1.4-0.8c0.3-0.3,0.6-0.6,0.7-1s0.3-0.6,0.3-0.8c0.1-0.5,0.1-0.8,0-1.1s-0.3-0.5-0.6-0.7     c-0.3-0.2-0.7-0.4-1.1-0.5s-0.9-0.3-1.5-0.4c-0.6-0.2-1.1-0.3-1.6-0.4c-0.4-0.1-0.8-0.2-1.2-0.3c-0.3-0.1-0.6-0.2-0.9-0.3     c-0.2-0.1-0.4-0.2-0.6-0.4c-0.6-0.5-0.9-1-1-1.6s-0.1-1.1,0-1.7c0.2-0.8,0.5-1.6,1-2.2s1.1-1.1,1.8-1.5c0.7-0.4,1.4-0.7,2.2-0.9     c0.8-0.2,1.6-0.3,2.4-0.3c0.3,0,0.6,0,1,0s0.8,0.1,1.2,0.2c0.4,0.1,0.8,0.3,1.2,0.5s0.7,0.5,1,0.9c0.2,0.3,0.3,0.5,0.4,0.8     s0.1,0.5,0.1,0.8c0,0.2,0,0.5,0,0.7s-0.1,0.4-0.1,0.6h-2.4c0.1-0.5,0-0.9-0.1-1.3c-0.1-0.3-0.4-0.6-0.6-0.8     c-0.3-0.2-0.6-0.3-1-0.4s-0.8-0.1-1.2-0.1c-1.2,0-2.1,0.2-2.9,0.7s-1.2,1.1-1.4,2c-0.1,0.4-0.1,0.7,0,0.9     c0.1,0.3,0.2,0.5,0.4,0.7c0.2,0.2,0.5,0.3,0.8,0.5c0.4,0.1,0.8,0.3,1.2,0.4c0.9,0.3,1.7,0.5,2.2,0.6c0.6,0.2,1,0.3,1.4,0.4     c0.3,0.1,0.6,0.2,0.8,0.3c0.2,0.1,0.4,0.2,0.6,0.4c0.3,0.3,0.6,0.5,0.7,0.9c0.2,0.3,0.3,0.6,0.3,0.9s0,0.6,0,0.9     s-0.1,0.5-0.1,0.7c-0.2,0.7-0.4,1.4-0.9,2c-0.4,0.6-0.9,1.2-1.6,1.6c-0.7,0.5-1.4,0.8-2.3,1.1c-0.9,0.3-1.9,0.4-2.9,0.4     c-0.3,0-0.7,0-1.2-0.1c-0.4,0-0.9-0.1-1.3-0.3c-0.5-0.1-0.9-0.3-1.3-0.6c-0.4-0.3-0.7-0.6-1-1c-0.2-0.3-0.3-0.6-0.3-0.9     c-0.1-0.3-0.1-0.6-0.1-0.9s0-0.6,0.1-0.8c0-0.3,0.1-0.5,0.1-0.7h2.5V114z"/>
			<path class="st0" d="M110.3,113.2c0.2-0.7,0.4-1.4,0.7-2.2c0.3-0.7,0.8-1.4,1.4-2s1.3-1.1,2.1-1.5c0.8-0.4,1.8-0.6,2.9-0.6     c1.2,0,2.1,0.2,2.7,0.6c0.7,0.4,1.1,0.9,1.4,1.5s0.4,1.3,0.4,2s0,1.4-0.2,2c-0.2,0.8-0.5,1.6-0.9,2.4s-0.9,1.4-1.5,2     s-1.3,1-2.1,1.3c-0.8,0.3-1.7,0.5-2.7,0.5s-1.7-0.2-2.4-0.5c-0.6-0.3-1.1-0.7-1.5-1.3s-0.6-1.2-0.7-1.9     C110.1,114.9,110.1,114.1,110.3,113.2z M112.6,113.1c-0.1,0.6-0.2,1.2-0.2,1.7s0.1,1,0.3,1.4c0.2,0.4,0.5,0.8,0.9,1     c0.4,0.3,0.9,0.4,1.5,0.4c0.4,0,0.8-0.1,1.3-0.2c0.5-0.2,0.9-0.4,1.3-0.8s0.8-0.8,1.1-1.4c0.3-0.6,0.6-1.3,0.8-2.2     c0.3-1.4,0.2-2.5-0.2-3.3c-0.5-0.7-1.2-1.1-2.2-1.1c-0.4,0-0.8,0.1-1.2,0.2c-0.4,0.1-0.9,0.4-1.3,0.7c-0.4,0.3-0.8,0.8-1.2,1.4     S112.8,112.2,112.6,113.1z"/>
			<path class="st0" d="M132.3,111c0-0.1,0-0.3,0-0.6c0-0.3,0-0.5-0.1-0.8s-0.3-0.5-0.5-0.7c-0.3-0.2-0.6-0.3-1.2-0.3     c-0.8,0-1.4,0.2-1.9,0.6s-0.9,0.8-1.2,1.3s-0.5,1-0.6,1.5s-0.2,0.8-0.3,1c-0.1,0.6-0.2,1.2-0.3,1.7c0,0.5,0,1,0.1,1.5     c0.1,0.4,0.3,0.8,0.7,1s0.8,0.4,1.3,0.4s0.9-0.1,1.2-0.2s0.6-0.4,0.9-0.6c0.2-0.2,0.4-0.5,0.6-0.8s0.3-0.6,0.3-0.9h2.2     c-0.1,0.6-0.4,1.1-0.7,1.6s-0.7,0.9-1.2,1.3s-1,0.7-1.6,0.9c-0.6,0.2-1.3,0.3-2,0.3c-0.2,0-0.4,0-0.7,0s-0.6-0.1-0.9-0.2     s-0.6-0.2-1-0.4c-0.3-0.2-0.6-0.5-0.8-0.8c-0.1-0.2-0.2-0.4-0.4-0.7s-0.2-0.6-0.3-0.9c-0.1-0.4-0.1-0.8,0-1.2     c0-0.5,0.1-1,0.2-1.6c0.2-1.2,0.6-2.2,1.1-3s1.1-1.4,1.7-1.9c0.6-0.5,1.2-0.8,1.9-1s1.3-0.3,1.9-0.3c0.2,0,0.4,0,0.7,0     s0.6,0.1,0.9,0.2s0.6,0.2,0.9,0.4c0.3,0.2,0.5,0.4,0.7,0.8c0.3,0.5,0.5,1,0.5,1.4s0,0.8-0.1,1.2h-2V111z"/>
			<path class="st0" d="M138,107.3h2.2l-2.5,11.5h-2.2L138,107.3z M138.8,102.3h2.6l-0.5,2.4h-2.6L138.8,102.3z"/>
			<path class="st0" d="M149,118.9c0-0.3,0-0.6,0-0.9s0.1-0.6,0.1-0.9c-0.4,0.5-0.7,0.9-1.1,1.1c-0.4,0.3-0.7,0.5-1.1,0.6     c-0.4,0.1-0.7,0.2-1,0.3s-0.6,0.1-0.8,0.1c-0.7,0-1.2-0.1-1.7-0.3c-0.5-0.2-0.9-0.4-1.1-0.7c-0.3-0.3-0.5-0.7-0.6-1.1     s-0.1-0.9,0-1.3c0-0.2,0.1-0.5,0.2-0.8s0.3-0.6,0.5-0.9s0.5-0.6,0.8-0.9s0.7-0.6,1.2-0.8c0.4-0.2,0.7-0.3,1.1-0.4     c0.4-0.1,0.8-0.2,1.2-0.2c0.4-0.1,0.7-0.1,1.1-0.1c0.3,0,0.6,0,0.8,0c0.3,0,0.5,0,0.7,0s0.5,0,0.8,0.1c0.1-0.4,0.1-0.7,0.2-0.9     s0.1-0.5,0.1-0.7s0-0.4,0-0.5c0-0.2-0.1-0.3-0.2-0.4c-0.2-0.3-0.4-0.5-0.8-0.6c-0.4-0.1-0.7-0.2-1-0.2c-0.6,0-1,0.1-1.3,0.2     c-0.3,0.2-0.6,0.3-0.8,0.6c-0.2,0.2-0.3,0.4-0.4,0.7c-0.1,0.2-0.1,0.4-0.2,0.5h-2.2c0.1-0.3,0.2-0.6,0.4-1s0.5-0.8,0.9-1.2     c0.3-0.2,0.6-0.4,0.9-0.6c0.3-0.2,0.7-0.3,1-0.4c0.4-0.1,0.7-0.2,1.1-0.2c0.4,0,0.7-0.1,1-0.1c0.4,0,0.8,0,1.2,0.1     s0.8,0.2,1.1,0.3c0.3,0.1,0.6,0.3,0.9,0.5s0.4,0.5,0.5,0.8c0.1,0.4,0.2,0.7,0.1,1c0,0.3-0.1,0.6-0.1,0.8l-1.3,5.5     c0,0,0,0.2-0.1,0.4c0,0.2-0.1,0.4-0.1,0.7c-0.1,0.3-0.1,0.6-0.1,0.9s-0.1,0.6-0.1,0.9H149z M149.9,113.2c-0.2,0-0.4,0-0.6-0.1     c-0.2,0-0.4,0-0.7,0c-0.2,0-0.6,0-1,0c-0.5,0-1,0.1-1.5,0.3c-0.5,0.1-1,0.4-1.4,0.7c-0.4,0.3-0.7,0.8-0.8,1.4     c0,0.2-0.1,0.4,0,0.6c0,0.2,0.1,0.4,0.2,0.7c0.1,0.2,0.3,0.4,0.6,0.5s0.7,0.2,1.2,0.2c1.1,0,2-0.4,2.7-1.2     c0.2-0.2,0.3-0.4,0.4-0.6c0.1-0.2,0.2-0.4,0.3-0.6s0.2-0.5,0.2-0.8C149.7,114,149.8,113.6,149.9,113.2z"/>
			<path class="st0" d="M158.3,102.3h2.2l-3.5,16.6h-2.2L158.3,102.3z"/>
			<path class="st0" d="M179,102.3h2.2l-3.1,14.7c0,0.1,0,0.2-0.1,0.3c0,0.1,0,0.3-0.1,0.5c0,0.2-0.1,0.4-0.1,0.5     c0,0.2-0.1,0.4-0.1,0.5h-2.2l0.3-1.8c-0.1,0.2-0.3,0.4-0.5,0.6s-0.5,0.4-0.8,0.6c-0.6,0.3-1.1,0.5-1.6,0.7     c-0.5,0.1-1,0.2-1.4,0.2s-0.8-0.1-1.4-0.2c-0.5-0.1-1-0.4-1.5-0.8s-0.8-1-1-1.8s-0.2-1.8,0.1-3.1c0.2-1.1,0.6-2.1,1-2.8     s1-1.4,1.6-2c0.6-0.5,1.2-0.9,1.9-1.1s1.3-0.4,2-0.4c0.6,0,1.1,0.1,1.5,0.2c0.4,0.2,0.7,0.3,0.9,0.6c0.2,0.2,0.4,0.4,0.5,0.6     s0.2,0.4,0.2,0.5L179,102.3z M176.9,112.9c0.2-0.8,0.2-1.5,0.2-2c-0.1-0.5-0.2-0.9-0.4-1.2c-0.2-0.3-0.4-0.6-0.8-0.8     c-0.4-0.2-0.9-0.4-1.5-0.4c-0.5,0-1,0.1-1.4,0.3s-0.7,0.4-1,0.7c-0.3,0.3-0.5,0.6-0.7,1s-0.4,0.7-0.5,1.1     c-0.1,0.3-0.2,0.7-0.3,0.9c-0.1,0.3-0.1,0.5-0.1,0.6c-0.1,0.5-0.2,1-0.2,1.6c0,0.5,0,1,0.2,1.4c0.1,0.4,0.4,0.8,0.7,1     c0.4,0.3,0.9,0.4,1.5,0.4c0.8,0,1.5-0.2,2.1-0.6s1-0.9,1.3-1.4s0.6-1,0.7-1.6C176.7,113.5,176.8,113.2,176.9,112.9z"/>
			<path class="st0" d="M188.6,118.9c0-0.3,0-0.6,0-0.9s0.1-0.6,0.1-0.9c-0.4,0.5-0.7,0.9-1.1,1.1c-0.4,0.3-0.7,0.5-1.1,0.6     c-0.4,0.1-0.7,0.2-1,0.3s-0.6,0.1-0.8,0.1c-0.7,0-1.2-0.1-1.7-0.3c-0.5-0.2-0.9-0.4-1.1-0.7c-0.3-0.3-0.5-0.7-0.6-1.1     s-0.1-0.9,0-1.3c0-0.2,0.1-0.5,0.2-0.8s0.3-0.6,0.5-0.9s0.5-0.6,0.8-0.9s0.7-0.6,1.2-0.8c0.4-0.2,0.7-0.3,1.1-0.4     c0.4-0.1,0.8-0.2,1.2-0.2c0.4-0.1,0.7-0.1,1.1-0.1c0.3,0,0.6,0,0.8,0c0.3,0,0.5,0,0.7,0s0.5,0,0.8,0.1c0.1-0.4,0.1-0.7,0.2-0.9     s0.1-0.5,0.1-0.7s0-0.4,0-0.5c0-0.2-0.1-0.3-0.2-0.4c-0.2-0.3-0.4-0.5-0.8-0.6c-0.4-0.1-0.7-0.2-1-0.2c-0.6,0-1,0.1-1.3,0.2     c-0.3,0.2-0.6,0.3-0.8,0.6c-0.2,0.2-0.3,0.4-0.4,0.7c-0.1,0.2-0.1,0.4-0.2,0.5h-2.2c0.1-0.3,0.2-0.6,0.4-1s0.5-0.8,0.9-1.2     c0.3-0.2,0.6-0.4,0.9-0.6c0.3-0.2,0.7-0.3,1-0.4c0.4-0.1,0.7-0.2,1.1-0.2c0.4,0,0.7-0.1,1-0.1c0.4,0,0.8,0,1.2,0.1     s0.8,0.2,1.1,0.3c0.3,0.1,0.6,0.3,0.9,0.5s0.4,0.5,0.5,0.8c0.1,0.4,0.2,0.7,0.1,1c0,0.3-0.1,0.6-0.1,0.8l-1.3,5.5     c0,0,0,0.2-0.1,0.4c0,0.2-0.1,0.4-0.1,0.7c-0.1,0.3-0.1,0.6-0.1,0.9s-0.1,0.6-0.1,0.9H188.6z M189.6,113.2c-0.2,0-0.4,0-0.6-0.1     c-0.2,0-0.4,0-0.7,0c-0.2,0-0.6,0-1,0c-0.5,0-1,0.1-1.5,0.3c-0.5,0.1-1,0.4-1.4,0.7c-0.4,0.3-0.7,0.8-0.8,1.4     c0,0.2-0.1,0.4,0,0.6c0,0.2,0.1,0.4,0.2,0.7c0.1,0.2,0.3,0.4,0.6,0.5s0.7,0.2,1.2,0.2c1.1,0,2-0.4,2.7-1.2     c0.2-0.2,0.3-0.4,0.4-0.6c0.1-0.2,0.2-0.4,0.3-0.6s0.2-0.5,0.2-0.8C189.4,114,189.4,113.6,189.6,113.2z"/>
			<path class="st0" d="M204.3,102.3h2.3l-3.5,16.6h-2.3L204.3,102.3z"/>
			<path class="st0" d="M209.4,108.6l0.3-1.3h2.2l-0.4,1.9c0.1-0.1,0.2-0.3,0.4-0.5s0.5-0.5,0.8-0.7s0.7-0.4,1.2-0.6     s1.1-0.3,1.7-0.3c0.3,0,0.6,0,1.1,0.1s0.9,0.2,1.3,0.5c0.4,0.3,0.7,0.7,0.9,1.2s0.2,1.2,0,2.1l-1.7,7.8H215l1.6-7.3     c0.1-0.4,0.1-0.7,0.1-1.1s-0.1-0.6-0.3-0.9s-0.5-0.5-0.8-0.6s-0.7-0.2-1.1-0.2c-0.4,0-0.8,0.1-1.2,0.2s-0.8,0.4-1.1,0.6     c-0.3,0.3-0.6,0.7-0.9,1.1s-0.4,0.9-0.6,1.5l-1.4,6.6h-2.2L209.4,108.6z"/>
			<path class="st0" d="M232.7,102.3h2.2l-3.1,14.7c0,0.1,0,0.2-0.1,0.3c0,0.1,0,0.3-0.1,0.5c0,0.2-0.1,0.4-0.1,0.5     c0,0.2-0.1,0.4-0.1,0.5h-2.2l0.3-1.8c-0.1,0.2-0.3,0.4-0.5,0.6s-0.5,0.4-0.8,0.6c-0.6,0.3-1.1,0.5-1.6,0.7     c-0.5,0.1-1,0.2-1.4,0.2s-0.8-0.1-1.4-0.2c-0.5-0.1-1-0.4-1.5-0.8s-0.8-1-1-1.8s-0.2-1.8,0.1-3.1c0.2-1.1,0.6-2.1,1-2.8     s1-1.4,1.6-2c0.6-0.5,1.2-0.9,1.9-1.1s1.3-0.4,2-0.4c0.6,0,1.1,0.1,1.5,0.2c0.4,0.2,0.7,0.3,0.9,0.6c0.2,0.2,0.4,0.4,0.5,0.6     s0.2,0.4,0.2,0.5L232.7,102.3z M230.6,112.9c0.2-0.8,0.2-1.5,0.2-2c-0.1-0.5-0.2-0.9-0.4-1.2s-0.4-0.6-0.8-0.8     c-0.4-0.2-0.9-0.4-1.5-0.4c-0.5,0-1,0.1-1.4,0.3s-0.7,0.4-1,0.7c-0.3,0.3-0.5,0.6-0.7,1s-0.4,0.7-0.5,1.1     c-0.1,0.3-0.2,0.7-0.3,0.9c-0.1,0.3-0.1,0.5-0.1,0.6c-0.1,0.5-0.2,1-0.2,1.6c0,0.5,0,1,0.2,1.4c0.1,0.4,0.4,0.8,0.7,1     c0.4,0.3,0.9,0.4,1.5,0.4c0.8,0,1.5-0.2,2.1-0.6s1-0.9,1.3-1.4s0.6-1,0.7-1.6C230.4,113.5,230.5,113.2,230.6,112.9z"/>
			<path class="st0" d="M239.7,107.3l-1.6,7.4c-0.1,0.3-0.1,0.6-0.1,0.9s0,0.6,0.2,0.8c0.1,0.2,0.3,0.4,0.6,0.6s0.7,0.2,1.3,0.2     c0.5,0,1.1-0.1,1.6-0.3s1-0.5,1.4-1c0.3-0.4,0.5-0.7,0.7-1.1c0.1-0.4,0.2-0.7,0.3-1l1.4-6.5h2.2l-2,9.4c0,0.1,0,0.2-0.1,0.3     c0,0.2-0.1,0.4-0.1,0.6s-0.1,0.4-0.1,0.7s-0.1,0.4-0.1,0.6H243l0.4-2c-0.1,0.2-0.3,0.4-0.5,0.7c-0.2,0.2-0.5,0.5-0.8,0.7     s-0.7,0.4-1.2,0.5s-1,0.2-1.6,0.2c-0.7,0-1.3-0.1-1.8-0.3c-0.5-0.2-0.9-0.5-1.1-0.8c-0.3-0.3-0.4-0.8-0.5-1.2     c-0.1-0.5,0-1,0.1-1.6l1.7-7.8L239.7,107.3L239.7,107.3z M246.8,101.8l-3.5,3.3h-1.5l2.6-3.3H246.8z"/>
			<path class="st0" d="M251.3,115.4c0,0.2-0.1,0.4-0.1,0.7c0,0.2,0.1,0.5,0.2,0.7s0.4,0.4,0.7,0.5c0.3,0.1,0.7,0.2,1.2,0.2     c0.4,0,0.8,0,1.2-0.1c0.4-0.1,0.7-0.3,1-0.6c0.3-0.3,0.5-0.7,0.6-1.1c0.1-0.3,0.1-0.5,0-0.7s-0.2-0.3-0.4-0.4     c-0.2-0.1-0.4-0.2-0.7-0.3c-0.3-0.1-0.7-0.2-1.1-0.3c-0.6-0.1-1.1-0.3-1.6-0.4c-0.5-0.2-0.9-0.4-1.3-0.6     c-0.3-0.2-0.6-0.6-0.7-0.9c-0.2-0.4-0.2-0.9,0-1.5c0.1-0.5,0.3-1,0.6-1.4s0.7-0.8,1.2-1.1c0.5-0.3,1-0.5,1.6-0.7s1.2-0.3,1.9-0.3     c0.4,0,0.8,0,1.2,0.1c0.4,0.1,0.8,0.2,1.1,0.3c0.4,0.1,0.7,0.3,0.9,0.6c0.3,0.2,0.5,0.5,0.6,0.9c0.1,0.3,0.1,0.6,0.1,0.9     s-0.1,0.5-0.1,0.8h-2.2c0.1-0.4,0.1-0.8,0-1s-0.3-0.4-0.5-0.6c-0.2-0.1-0.4-0.2-0.7-0.2c-0.3,0-0.5,0-0.7,0c-0.1,0-0.2,0-0.5,0     s-0.5,0.1-0.8,0.2s-0.6,0.3-0.8,0.5c-0.3,0.2-0.4,0.5-0.5,1c0,0.3,0,0.5,0,0.7c0.1,0.2,0.2,0.3,0.3,0.4c0.1,0.1,0.3,0.2,0.5,0.2     s0.3,0.1,0.5,0.1c0.8,0.2,1.4,0.3,1.9,0.5c0.5,0.1,0.9,0.3,1.2,0.4c0.3,0.1,0.5,0.2,0.7,0.3c0.2,0.1,0.3,0.3,0.5,0.4     c0.3,0.3,0.4,0.6,0.5,1s0,0.7,0,1.1c-0.1,0.6-0.4,1.2-0.8,1.7s-0.9,0.9-1.4,1.2c-0.6,0.3-1.2,0.5-1.8,0.6     c-0.6,0.1-1.2,0.2-1.8,0.2c-0.6,0-1.1-0.1-1.6-0.2s-1-0.3-1.3-0.6c-0.4-0.3-0.6-0.7-0.8-1.2s-0.1-1.1,0-1.8h2V115.4z"/>
			<path class="st0" d="M261.5,107.3h2l0.5-2.4l2.3-0.7l-0.7,3.1h2.6l-0.3,1.6h-2.6l-1.5,6.9c0,0.1,0,0.3-0.1,0.5     c0,0.2,0,0.4,0.1,0.5s0.2,0.3,0.4,0.4c0.2,0.1,0.5,0.2,0.9,0.2c0.2,0,0.4,0,0.6,0s0.3,0,0.4-0.1l-0.3,1.7c-0.2,0-0.5,0.1-0.8,0.1     s-0.6,0-1,0c-1,0-1.7-0.2-2.1-0.5s-0.5-1-0.3-1.9l1.6-7.7h-2L261.5,107.3z"/>
			<path class="st0" d="M270.6,109.7c0.1-0.4,0.2-0.8,0.2-1.2c0.1-0.4,0.1-0.8,0.2-1.2h2.2l-0.4,2.2c0.2-0.4,0.4-0.7,0.7-1     c0.3-0.3,0.5-0.5,0.8-0.7s0.6-0.3,0.9-0.4s0.6-0.2,0.8-0.2c0.3,0,0.6-0.1,0.9-0.1s0.5,0,0.6,0l-0.5,2.1c-0.1,0-0.2-0.1-0.4-0.1     c-0.1,0-0.2,0-0.3,0c-0.1,0-0.2,0-0.3,0c-0.6,0-1.2,0.1-1.6,0.3c-0.4,0.2-0.8,0.4-1.1,0.7c-0.3,0.3-0.5,0.7-0.7,1.1     s-0.3,0.9-0.4,1.4l-1.3,6.1h-2.2L270.6,109.7z"/>
			<path class="st0" d="M279.9,107.3h2.2l-2.5,11.5h-2.1L279.9,107.3z M280.8,102.3h2.6l-0.5,2.4h-2.6L280.8,102.3z"/>
			<path class="st0" d="M290.9,118.9c0-0.3,0-0.6,0-0.9s0.1-0.6,0.1-0.9c-0.4,0.5-0.7,0.9-1.1,1.1c-0.4,0.3-0.7,0.5-1.1,0.6     s-0.7,0.2-1,0.3s-0.6,0.1-0.8,0.1c-0.7,0-1.2-0.1-1.7-0.3c-0.5-0.2-0.9-0.4-1.1-0.7c-0.3-0.3-0.5-0.7-0.6-1.1s-0.1-0.9,0-1.3     c0-0.2,0.1-0.5,0.2-0.8s0.3-0.6,0.5-0.9s0.5-0.6,0.8-0.9s0.7-0.6,1.2-0.8c0.4-0.2,0.7-0.3,1.1-0.4s0.8-0.2,1.2-0.2     c0.4-0.1,0.7-0.1,1.1-0.1c0.3,0,0.6,0,0.8,0c0.3,0,0.5,0,0.7,0s0.5,0,0.8,0.1c0.1-0.4,0.1-0.7,0.2-0.9s0.1-0.5,0.1-0.7     s0-0.4,0-0.5c0-0.2-0.1-0.3-0.2-0.4c-0.2-0.3-0.4-0.5-0.8-0.6s-0.7-0.2-1-0.2c-0.6,0-1,0.1-1.3,0.2c-0.3,0.2-0.6,0.3-0.8,0.6     c-0.2,0.2-0.3,0.4-0.4,0.7c-0.1,0.2-0.1,0.4-0.2,0.5h-2.1c0.1-0.3,0.2-0.6,0.4-1c0.2-0.4,0.5-0.8,0.9-1.2     c0.3-0.2,0.6-0.4,0.9-0.6s0.7-0.3,1-0.4c0.4-0.1,0.7-0.2,1.1-0.2s0.7-0.1,1-0.1c0.4,0,0.8,0,1.2,0.1s0.8,0.2,1.1,0.3     c0.3,0.1,0.6,0.3,0.9,0.5s0.4,0.5,0.5,0.8c0.1,0.4,0.2,0.7,0.1,1c0,0.3-0.1,0.6-0.1,0.8l-1.3,5.5c0,0,0,0.2-0.1,0.4     c0,0.2-0.1,0.4-0.1,0.7c-0.1,0.3-0.1,0.6-0.1,0.9s-0.1,0.6-0.1,0.9H290.9z M291.8,113.2c-0.2,0-0.4,0-0.6-0.1c-0.2,0-0.4,0-0.7,0     c-0.2,0-0.6,0-1,0c-0.5,0-1,0.1-1.5,0.3c-0.5,0.1-1,0.4-1.4,0.7c-0.4,0.3-0.7,0.8-0.8,1.4c0,0.2-0.1,0.4,0,0.6     c0,0.2,0.1,0.4,0.2,0.7c0.1,0.2,0.3,0.4,0.6,0.5c0.3,0.1,0.7,0.2,1.2,0.2c1.1,0,2-0.4,2.7-1.2c0.2-0.2,0.3-0.4,0.4-0.6     s0.2-0.4,0.3-0.6c0.1-0.2,0.2-0.5,0.2-0.8C291.6,114,291.7,113.6,291.8,113.2z"/>
		</g>
		<path class="st0" d="M253.9,20.6v-2.1h16.4V6.6H28.7v11.9h16.4v2.1H28.7v11.5h16.4v2.1H28.7v11.9h16.4v2.1H28.7v12.1h16.4v2.1    H28.7V74h16.4v2.1H28.7v11.7h241.6V76.2h-16.4v-2.1h16.4V62.5h-16.4v-2.1h16.4V48.3h-16.4v-2.1h16.4V34.3h-16.4v-2.1h16.4V20.6    H253.9z M106.1,35.4h-16c0.5-2.2,0.2-3.9-1-5.1c-1.1-1.2-3.1-1.8-5.8-1.8c-3.7,0-7.4,2.4-8,5.3c-0.9,4.2,3.9,5.6,7.9,6.7    c9.2,2.5,23.1,3.4,19.7,19.1c-2.6,12.2-15.8,18-29.2,18c-13.5,0-24.5-3.9-21.4-19.6h16c-1.2,5.4,2.1,8.4,7.9,8.4    c3.7,0,8.8-1.9,9.6-5.8c1.7-7.9-10.5-6.2-22-11.7c-5.3-2.6-7.1-7.9-5.7-14.1c3.6-13.7,16.4-17.5,28.5-17.5    C98.7,17.2,110.1,21.4,106.1,35.4z M157.6,41.5l-2.4,11.2h-25.8L126.8,65h28l-2.3,11.2h-44.1l12.3-57.8H164h0.8l-0.8,3.8l-1.6,7.4    h-28l-2.5,11.9C131.9,41.5,157.6,41.5,157.6,41.5z M217.4,35.4h-16c0.5-2.2,0.2-3.9-1-5.1c-1.1-1.2-3.1-1.8-5.8-1.8    c-3.7,0-7.4,2.4-8,5.3c-0.9,4.2,3.9,5.6,7.9,6.7c9.2,2.5,23.1,3.4,19.7,19.1c-2.6,12.2-15.8,18-29.2,18c-9.9,0-18.5-2.1-21.1-9.5    c-0.9-2.6-1.1-6-0.3-10.1h0.3h15.7c-1.2,5.4,2.1,8.4,7.9,8.4c3.7,0,8.8-1.9,9.6-5.8c1.7-7.9-10.5-6.2-22-11.7    c-5.3-2.6-7.1-7.9-5.7-14.1c3.6-13.7,16.4-17.5,28.5-17.5C210,17.2,221.3,21.4,217.4,35.4z M235.6,76.2h-16l12.3-57.8h16    L235.6,76.2z"/>
	</g>
</g>
<script xmlns=""/></svg>